<svg width="129" height="65" viewBox="0 0 129 65" fill="none" xmlns="http://www.w3.org/2000/svg">
<path d="M8.44094 53.1246C8.70771 53.6901 9.10785 54.3221 9.67473 55.0872C10.0749 55.686 10.4083 56.1849 10.6751 56.6174C10.9419 57.0498 11.1419 57.5488 11.342 58.1143C11.5087 58.6798 11.6088 59.2785 11.6088 59.9438C11.6088 60.975 11.3754 61.8732 10.9419 62.6382C10.5084 63.4033 9.8748 63.9688 9.07451 64.368C8.27421 64.7672 7.34053 64.9667 6.24013 64.9667C5.13972 64.9667 4.20604 64.7672 3.40575 64.368C2.60545 63.9688 2.00523 63.3701 1.57174 62.6382C1.13824 61.9064 0.938171 61.0083 0.938171 60.0103C0.938171 58.9791 1.20494 57.9479 1.77181 56.9167L4.83961 57.9812C4.57284 58.6132 4.43946 59.3118 4.43946 60.0436C4.43946 60.7754 4.57284 61.3742 4.87295 61.7734C5.13972 62.1725 5.60656 62.4054 6.20678 62.4054C6.77366 62.4054 7.17381 62.2058 7.44057 61.8066C7.70734 61.4074 7.84071 60.8752 7.84071 60.1767C7.84071 59.4448 7.70734 58.8128 7.44057 58.2806C7.17381 57.7484 6.80701 57.1163 6.27348 56.3845C5.87333 55.819 5.53987 55.2868 5.27311 54.8543C5.00634 54.4219 4.80627 53.8897 4.63954 53.2909C4.47281 52.6922 4.37277 51.9936 4.37277 51.2285H7.97411C8.00745 51.9603 8.17418 52.5591 8.44094 53.1246Z" fill="#214476"/>
<path d="M19.9785 63.4033C19.445 63.0707 18.8447 62.9376 18.1778 62.9376C16.944 62.9376 15.8436 63.2703 14.8099 63.9023L13.9096 61.607C14.2097 61.474 14.5765 61.3742 15.0433 61.2744C15.4768 61.1746 15.9103 61.1413 16.3438 61.1413C15.2434 60.7089 14.3097 60.0103 13.5761 59.0789C12.8425 58.1475 12.4757 57.0165 12.4757 55.686C12.4757 54.1225 12.8425 52.925 13.5761 52.1267C14.3097 51.3283 15.3435 50.9291 16.6106 50.9291C17.5109 50.9291 18.2112 51.1287 18.7447 51.4946C19.2782 51.8938 19.645 52.4593 19.8451 53.2244C20.0452 52.4593 20.3787 51.8938 20.9122 51.4946C21.4124 51.0955 22.1126 50.9291 23.013 50.9291C24.3134 50.9291 25.3471 51.3283 26.1141 52.1267C26.881 52.925 27.2812 54.1225 27.2812 55.686C27.2812 56.5176 27.1478 57.3159 26.9144 58.0477C26.681 58.7796 26.3142 59.5114 25.8473 60.2432L22.8796 58.7796C23.1463 58.2806 23.3131 57.7816 23.4131 57.2827C23.5131 56.8169 23.5798 56.2182 23.5798 55.5529C23.5798 54.1225 23.213 53.3907 22.4461 53.3907C22.1793 53.3907 21.9459 53.4905 21.7792 53.6901C21.6124 53.8897 21.5124 54.1891 21.5124 54.5882V57.7816H18.2112V54.6215C18.2112 53.8231 17.9111 53.424 17.3109 53.424C16.9107 53.424 16.6106 53.6236 16.4105 53.9895C16.2104 54.3886 16.1104 54.9874 16.1104 55.819C16.1104 56.9833 16.3772 57.9147 16.9441 58.58C17.4776 59.2453 18.3779 59.8108 19.5784 60.2765C21.0122 60.7422 22.2127 61.3077 23.113 62.0062C24.0467 62.7048 24.5469 63.5696 24.5802 64.6341H20.9789C20.8455 64.1351 20.512 63.7027 19.9785 63.4033Z" fill="#214476"/>
<path d="M37.1516 56.0519C37.7851 56.4178 38.2853 56.95 38.6187 57.6153C38.9855 58.2806 39.1523 59.0789 39.1523 59.9438C39.1523 61.5072 38.6854 62.7713 37.7851 63.6694C36.8848 64.5676 35.5843 65 33.917 65C32.2497 65 30.9826 64.5676 30.0823 63.6694C29.1819 62.8046 28.7484 61.5738 28.7484 59.9771V54.555C28.7484 53.424 29.0819 52.5258 29.7822 51.8605C30.4824 51.2285 31.3827 50.8959 32.5165 50.8959C33.9504 50.8959 34.884 51.3948 35.3175 52.3928C35.6177 51.3948 36.3846 50.8959 37.6184 50.8959C38.2186 50.8959 38.8188 51.0289 39.3524 51.2618L38.7188 53.3574C38.452 53.2577 38.1519 53.1911 37.8185 53.1911C37.5517 53.1911 37.3516 53.2577 37.1849 53.3907C37.0182 53.5238 36.9515 53.7566 36.9515 54.0227V54.4552H33.8837V53.9562C33.8837 53.7234 33.817 53.5238 33.6836 53.3907C33.5502 53.2577 33.3501 53.1911 33.1167 53.1911C32.85 53.1911 32.6499 53.2577 32.5165 53.424C32.3831 53.5903 32.3164 53.8231 32.3164 54.1225V56.2847C32.6165 56.0519 33.0167 55.8523 33.4502 55.7192C33.917 55.5862 34.4172 55.4864 34.9507 55.4864C35.7844 55.4864 36.518 55.686 37.1516 56.0519ZM35.0841 61.9397C35.3509 61.5405 35.5176 60.8752 35.5176 59.9771C35.5176 59.2453 35.3842 58.6798 35.1508 58.3139C34.9174 57.9479 34.5172 57.7816 34.0171 57.7816C33.7503 57.7816 33.4502 57.8482 33.1501 57.9479C32.85 58.0477 32.5832 58.2141 32.3498 58.4136V60.3097C32.3498 61.0415 32.4832 61.607 32.7166 61.9729C32.95 62.3721 33.3502 62.5384 33.8837 62.5384C34.3839 62.5384 34.784 62.3389 35.0841 61.9397Z" fill="#214476"/>
<path d="M48.4891 51.4614C49.2227 51.794 49.7895 52.293 50.1897 52.925C50.5898 53.557 50.7899 54.2888 50.7899 55.1205V60.6424C50.7899 61.474 50.5898 62.2058 50.223 62.8711C49.8562 63.5364 49.2894 64.0686 48.5224 64.4345C47.7888 64.8004 46.8885 65 45.8214 65C44.821 65 43.9207 64.8004 43.1871 64.4345C42.4535 64.0353 41.8866 63.5364 41.4865 62.8711C41.0863 62.2058 40.8863 61.4407 40.8863 60.6091C40.8863 59.844 41.0863 59.0457 41.4865 58.2473L44.5876 59.1787C44.4209 59.6444 44.3542 60.1101 44.3542 60.5758C44.3542 61.1413 44.4876 61.5738 44.721 61.9064C44.9544 62.2391 45.3212 62.4386 45.8214 62.4386C46.7551 62.4386 47.2219 61.8731 47.2219 60.7422V54.9541C47.2219 54.4884 47.1219 54.1225 46.8885 53.8897C46.6551 53.6568 46.3549 53.5238 45.9548 53.5238C45.5546 53.5238 45.2545 53.6236 45.0545 53.8564C44.8544 54.0893 44.721 54.3886 44.721 54.7546C44.721 55.1537 44.7877 55.4864 44.8877 55.819L41.5865 56.3845C41.3197 55.7857 41.153 55.2203 41.153 54.688C41.153 53.9562 41.3531 53.3242 41.7532 52.7587C42.1534 52.1932 42.7203 51.7607 43.4205 51.4614C44.1541 51.162 44.9878 50.9957 45.9214 50.9957C46.9218 50.9624 47.7555 51.1287 48.4891 51.4614Z" fill="#214476"/>
<path d="M52.7573 62.0395C52.5572 61.1081 52.4238 60.0103 52.4238 58.7796C52.4238 57.449 52.5906 56.318 52.924 55.3866C53.2575 54.4552 53.891 53.6901 54.758 53.0913C55.6584 52.4926 56.8921 52.0601 58.5261 51.8605C59.5931 51.7275 60.4268 51.5944 61.0604 51.4281C61.6939 51.2951 62.2274 51.1287 62.6943 50.9624L63.828 53.2577C63.4279 53.557 62.8277 53.8231 62.0607 54.056C61.2938 54.2889 60.3934 54.4219 59.3597 54.5217C58.1259 54.6215 57.2256 54.7546 56.6921 54.9541C56.1252 55.1537 55.7584 55.4531 55.525 55.819C55.9585 55.4531 56.5254 55.2868 57.2256 55.2868C57.8925 55.2868 58.4594 55.4864 58.8929 55.8523C59.3264 56.2515 59.6265 56.817 59.7599 57.5488C59.9266 56.7837 60.3267 56.2182 60.8603 55.8523C61.4271 55.4531 62.1274 55.2868 63.0277 55.2868C64.2949 55.2868 65.2953 55.6527 66.0622 56.4178C66.7958 57.1829 67.1626 58.3139 67.1626 59.8773C67.1626 60.8087 67.0626 61.607 66.8292 62.3389C66.6291 63.0707 66.329 63.8358 65.9288 64.7006H62.6276C62.961 63.7692 63.1945 62.9709 63.3612 62.3056C63.5279 61.6403 63.5946 60.8752 63.5946 60.0769C63.5946 58.5467 63.1945 57.7816 62.3942 57.7816C61.7273 57.7816 61.3605 58.2473 61.3605 59.212V62.2058H58.0259V59.212C58.0259 58.2473 57.6924 57.7816 57.0589 57.7816C56.6587 57.7816 56.3586 57.9479 56.1585 58.3139C55.9585 58.6798 55.8584 59.2453 55.8584 60.0436C55.8584 60.8752 55.9251 61.6403 56.0918 62.3056C56.2586 63.0041 56.492 63.8025 56.8255 64.7006H53.5242C53.2575 63.8358 52.9574 62.9709 52.7573 62.0395Z" fill="#214476"/>
<path d="M76.1659 53.1246C76.4327 53.6901 76.8328 54.3221 77.3997 55.0872C77.7999 55.686 78.1333 56.1849 78.4001 56.6174C78.6668 57.0498 78.8669 57.5488 79.067 58.1143C79.2337 58.6798 79.3338 59.2785 79.3338 59.9438C79.3338 60.975 79.1003 61.8732 78.6668 62.6382C78.2333 63.4033 77.5998 63.9688 76.7995 64.368C75.9992 64.7672 75.0655 64.9667 73.9651 64.9667C72.8647 64.9667 71.931 64.7672 71.1307 64.368C70.3304 63.9688 69.7302 63.3701 69.2967 62.6382C68.8632 61.9064 68.6631 61.0083 68.6631 60.0103C68.6631 58.9791 68.9299 57.9479 69.4968 56.9167L72.5646 57.9812C72.2978 58.6132 72.1644 59.3118 72.1644 60.0436C72.1644 60.7754 72.2978 61.3742 72.5979 61.7734C72.8647 62.1725 73.3315 62.4054 73.9318 62.4054C74.4986 62.4054 74.8988 62.2058 75.1655 61.8066C75.4323 61.4074 75.5657 60.8752 75.5657 60.1767C75.5657 59.4448 75.4323 58.8128 75.1655 58.2806C74.8988 57.7484 74.532 57.1163 73.9985 56.3845C73.5983 55.819 73.2648 55.2868 72.9981 54.8543C72.7313 54.4219 72.5312 53.8897 72.3645 53.2909C72.1978 52.6922 72.0977 51.9936 72.0977 51.2285H75.6991C75.7658 51.9603 75.8992 52.5591 76.1659 53.1246Z" fill="#214476"/>
<path d="M92.3052 51.8605C93.0055 52.1932 93.539 52.6589 93.9058 53.2244C94.2726 53.7899 94.4394 54.4219 94.4394 55.1205C94.4394 55.819 94.306 56.451 94.0392 57.0498C93.7724 57.6486 93.3056 58.3471 92.6053 59.1455C91.9051 59.9438 90.8714 60.9417 89.5042 62.1393H94.7061L94.3393 64.6008H85.6361V62.3389C87.17 60.842 88.2704 59.6777 89.004 58.8793C89.7376 58.081 90.2378 57.4157 90.5046 56.9167C90.7713 56.3845 90.9381 55.8855 90.9381 55.3533C90.9381 54.8543 90.8047 54.4884 90.5379 54.1891C90.2711 53.9229 89.9043 53.7566 89.4375 53.7566C89.004 53.7566 88.6039 53.8564 88.2371 54.0893C87.8703 54.3221 87.5368 54.6215 87.17 55.0872L85.2026 53.4905C85.7695 52.7919 86.403 52.2597 87.2033 51.8605C87.9703 51.4614 88.8373 51.2618 89.8377 51.2618C90.738 51.3283 91.605 51.4946 92.3052 51.8605Z" fill="#214476"/>
<path d="M105.143 53.0913C106.01 54.2556 106.444 55.9521 106.444 58.1475C106.444 60.343 106.01 62.0395 105.143 63.2037C104.276 64.4013 103.009 64.9667 101.375 64.9667C99.7413 64.9667 98.4742 64.368 97.6072 63.2037C96.7402 62.0062 96.2733 60.343 96.2733 58.1475C96.2733 55.9521 96.7068 54.2556 97.6072 53.0913C98.4742 51.9271 99.7413 51.3283 101.375 51.3283C103.009 51.3283 104.276 51.9271 105.143 53.0913ZM100.442 54.1891C100.208 54.4552 100.041 54.8876 99.9414 55.5196C99.8413 56.1517 99.7746 57.0165 99.7746 58.1475C99.7746 59.2785 99.8413 60.1767 99.9414 60.7754C100.041 61.4074 100.208 61.8399 100.442 62.106C100.675 62.3721 100.975 62.5052 101.375 62.5052C101.775 62.5052 102.075 62.3721 102.309 62.1393C102.542 61.8732 102.709 61.4407 102.809 60.8087C102.909 60.1767 102.976 59.2785 102.976 58.1143C102.976 56.95 102.909 56.0519 102.809 55.4198C102.709 54.7878 102.542 54.3554 102.309 54.1225C102.075 53.8897 101.775 53.7566 101.375 53.7566C100.975 53.8231 100.675 53.9229 100.442 54.1891Z" fill="#214476"/>
<path d="M114.547 51.8605C115.247 52.1932 115.781 52.6589 116.147 53.2244C116.514 53.7899 116.681 54.4219 116.681 55.1205C116.681 55.819 116.548 56.451 116.281 57.0498C116.014 57.6486 115.547 58.3471 114.847 59.1455C114.147 59.9438 113.113 60.9417 111.746 62.1393H116.948L116.581 64.6008H107.878V62.3389C109.412 60.842 110.512 59.6777 111.246 58.8793C111.979 58.081 112.479 57.4157 112.746 56.9167C113.013 56.3845 113.18 55.8855 113.18 55.3533C113.18 54.8543 113.046 54.4884 112.779 54.1891C112.513 53.9229 112.146 53.7566 111.679 53.7566C111.246 53.7566 110.845 53.8564 110.479 54.0893C110.112 54.2888 109.778 54.6215 109.412 55.0872L107.444 53.4905C108.011 52.7919 108.645 52.2597 109.445 51.8605C110.212 51.4614 111.079 51.2618 112.079 51.2618C113.013 51.3283 113.847 51.4946 114.547 51.8605Z" fill="#214476"/>
<path d="M128.085 61.9397H126.685V64.6341H123.35L123.317 61.9397H117.848V59.7442L121.483 51.295L124.417 52.3595L121.383 59.4781H123.383L123.784 56.5176H126.718V59.4781H128.118V61.9397H128.085Z" fill="#214476"/>
<path d="M93.2722 12.808H86.0029C83.6687 12.808 81.768 14.7041 81.768 17.0326V19.3611C82.9017 20.2593 83.7354 21.49 84.1355 22.9537V22.9869V23.0202L86.2696 32.933C86.5697 34.2303 86.303 35.5609 85.4693 36.5921C85.0358 37.1244 84.5023 37.5568 83.9021 37.8562V41.0496C83.9021 42.613 85.1692 43.877 86.7365 43.877H92.5386C94.1059 43.877 95.373 42.613 95.373 41.0496V29.7396H95.6398C96.6735 29.7396 97.5405 28.908 97.5405 27.8436V17.0326C97.5071 14.7041 95.6064 12.808 93.2722 12.808Z" fill="#FE7155"/>
<path d="M48.1889 28.1429C48.1889 25.6481 49.5894 23.4527 51.6235 22.2884L50.6231 18.7956C50.1563 16.8995 48.4557 15.6022 46.5216 15.6022H39.419C37.4849 15.6022 35.7843 16.9328 35.3175 18.7956L31.5161 32.2012C31.216 33.3987 32.1163 34.5297 33.3501 34.5297H37.2515V41.0828C37.2515 42.6463 38.5187 43.9103 40.0859 43.9103H45.8881C47.4553 43.9103 48.7224 42.6463 48.7224 41.0828V36.0266C48.389 35.3946 48.1889 34.696 48.1889 33.931V28.1429Z" fill="#90CAF9"/>
<path d="M62.7276 36.6587C61.894 35.5942 61.6272 34.2637 61.9273 32.9996L63.7947 24.251C63.2945 24.0515 62.761 23.9184 62.1607 23.9184H54.8914C54.658 23.9184 54.4579 23.9517 54.2245 23.9849C53.891 24.0515 53.5576 24.118 53.2241 24.251C52.8907 24.3841 52.5905 24.5837 52.3238 24.7833C51.2901 25.5484 50.6231 26.7791 50.6231 28.143V33.931C50.6231 34.1306 50.6565 34.3302 50.7232 34.5298C50.8566 34.9622 51.1567 35.3281 51.5568 35.561C51.8236 35.7273 52.157 35.8271 52.5238 35.8271H52.7906V36.5922V41.0829C52.7906 42.6463 54.0577 43.9104 55.625 43.9104H61.4271C62.9944 43.9104 64.2615 42.6463 64.2615 41.0829V37.9227C63.6946 37.6234 63.1278 37.1909 62.7276 36.6587Z" fill="#9FCF88"/>
<path d="M83.8687 33.5318L83.0351 29.6399L81.768 23.7188L81.7346 23.5857C81.2678 21.6896 79.5672 20.3923 77.6331 20.3923H74.0985H74.0318H70.5305C68.7298 20.3923 67.1626 21.4901 66.5624 23.1533C66.4957 23.2863 66.4623 23.4527 66.429 23.5857L66.2289 24.5171L65.8955 26.1471L64.2948 33.5318C64.0614 34.4299 64.5283 35.2948 65.2619 35.6607C65.5286 35.7938 65.7954 35.8603 66.1289 35.8603H66.9625H68.363V35.9601V41.0496C68.363 42.613 69.6302 43.8771 71.1974 43.8771H74.0651H74.1318H76.9996C78.5668 43.8771 79.8339 42.613 79.8339 41.0496V35.8271H82.0681C83.0685 35.8271 83.8688 35.062 83.9354 34.1306V33.7979C83.9021 33.7314 83.8687 33.6316 83.8687 33.5318Z" fill="#FCB765"/>
<path d="M98.3408 5.12392H95.3397C95.0396 2.29644 92.6387 0.0677209 89.7376 0.00119198C86.5365 -0.065337 83.9022 2.66235 83.9022 5.85574V6.02206C83.9022 6.18839 84.0355 6.32144 84.2023 6.32144H84.6024H85.1026H94.1726H95.3731H98.3408C98.6743 6.32144 98.941 6.05533 98.941 5.72268C98.941 5.39004 98.6743 5.12392 98.3408 5.12392ZM89.8043 1.19871C92.0385 1.29851 93.7725 2.995 94.1059 5.12392H85.1359C85.436 2.86194 87.4368 1.09892 89.8043 1.19871Z" fill="#214476"/>
<path d="M35.0508 8.55017C35.0508 8.88281 35.3175 9.14893 35.651 9.14893H37.2849H38.4853H47.5554H48.0556H48.4557C48.6224 9.14893 48.7558 9.01587 48.7558 8.84955V8.68322C48.7558 5.48983 46.1215 2.79541 42.9203 2.82867C40.0192 2.86194 37.6184 5.12392 37.3183 7.95141H35.651C35.3175 7.95141 35.0508 8.21752 35.0508 8.55017ZM47.4887 7.95141H38.5187C38.8521 5.82248 40.6195 4.09272 42.8203 4.0262C45.2212 3.9264 47.1886 5.68942 47.4887 7.95141Z" fill="#214476"/>
<path d="M92.9721 7.28616C92.3719 8.55021 91.1048 9.41509 89.6376 9.41509C88.5705 9.41509 87.5701 8.94939 86.9032 8.21757C86.6698 7.95145 86.4697 7.65207 86.303 7.31943H84.1022L78.7002 9.91406C77.6665 8.51695 75.9659 7.58554 74.0652 7.58554C70.8973 7.58554 68.3297 10.1469 68.3297 13.307C68.3297 13.4068 68.3297 13.4734 68.3297 13.5732L63.7947 14.6043C62.9277 12.5752 60.8936 11.1448 58.5261 11.1448C56.6921 11.1448 55.0915 12.0097 54.0244 13.307L48.4557 10.3465H46.2215C46.0548 10.6459 45.8547 10.912 45.6213 11.1448C44.9544 11.8434 44.0207 12.2426 42.987 12.2426C41.5865 12.2426 40.386 11.4775 39.7525 10.3132H37.5183C38.2519 12.6085 40.4194 14.2717 42.987 14.2717C44.821 14.2717 46.4216 13.4401 47.4887 12.1095L53.0907 15.0701C52.924 15.6355 52.824 16.201 52.824 16.8331C52.824 19.9932 55.3916 22.5546 58.5594 22.5546C61.7273 22.5546 64.2949 19.9932 64.2949 16.8331C64.2949 16.7333 64.2949 16.6667 64.2949 16.567L68.8299 15.5358C69.6969 17.5649 71.7309 18.9953 74.0985 18.9953C77.2663 18.9953 79.8339 16.4339 79.8339 13.2738C79.8339 12.7415 79.7672 12.2093 79.6339 11.7103L85.0359 9.08245C86.0696 10.4796 87.7702 11.411 89.6709 11.411C92.3052 11.411 94.506 9.64794 95.2063 7.2529H92.9721V7.28616ZM62.2274 17.0659C62.1274 18.9953 60.5268 20.5254 58.5594 20.5254C56.5253 20.5254 54.858 18.8622 54.858 16.8331C54.858 16.567 54.8914 16.3008 54.9247 16.068C55.0581 15.3694 55.4249 14.7707 55.8918 14.2717C56.5587 13.5732 57.4924 13.174 58.5261 13.174C59.9266 13.174 61.127 13.9391 61.7606 15.0701C62.0607 15.6023 62.2274 16.201 62.2274 16.8663C62.2274 16.9329 62.2274 16.9994 62.2274 17.0659ZM74.0985 16.9994C72.698 16.9994 71.4975 16.2343 70.864 15.1033C70.5638 14.5711 70.3971 13.9723 70.3971 13.307C70.3971 13.2405 70.3971 13.174 70.3971 13.1074C70.4972 11.1781 72.0978 9.64794 74.0652 9.64794C75.1322 9.64794 76.1326 10.1136 76.7995 10.8455C77.2663 11.3444 77.5664 11.9765 77.6998 12.675C77.7332 12.8746 77.7665 13.1074 77.7665 13.307C77.7665 15.3362 76.1326 16.9994 74.0985 16.9994Z" fill="#214476"/>
<path d="M87.9036 4.19254C87.9036 4.2258 87.9036 4.25906 87.9369 4.25906C87.9703 4.25906 88.0036 4.29233 88.0036 4.35886V4.45865C88.0036 4.52518 87.9369 4.55845 87.8369 4.55845H87.7035C87.6035 4.55845 87.5368 4.52518 87.5368 4.45865V4.12601H87.6368V4.45865C87.6368 4.49192 87.6702 4.49192 87.7035 4.49192H87.8369C87.8702 4.49192 87.9036 4.49192 87.9036 4.45865V4.35886C87.9036 4.32559 87.9036 4.32559 87.8702 4.29233C87.8369 4.29233 87.8369 4.25906 87.8369 4.19254H87.9036Z" fill="#214476"/>
<path d="M88.137 4.29233V4.42539C88.137 4.45865 88.1703 4.45865 88.2037 4.45865H88.3371C88.3704 4.45865 88.4038 4.45865 88.4038 4.42539V4.25906C88.4038 4.2258 88.3704 4.2258 88.3371 4.2258H88.3037C88.2037 4.2258 88.1703 4.19254 88.1703 4.12601H88.2704C88.2704 4.15927 88.2704 4.19254 88.3037 4.19254H88.3371C88.4371 4.19254 88.5038 4.2258 88.5038 4.29233V4.45865C88.5038 4.52518 88.4371 4.55845 88.3371 4.55845H88.2037C88.1036 4.55845 88.037 4.52518 88.037 4.45865V4.32559H88.137V4.29233Z" fill="#214476"/>
<path d="M88.5705 4.2258C88.5705 4.15927 88.6372 4.12601 88.7373 4.12601H88.7706C88.8039 4.12601 88.8706 4.12601 88.904 4.15927V4.09274H89.004V4.42539C89.004 4.49192 88.9373 4.52518 88.8373 4.52518H88.7039C88.6039 4.52518 88.5372 4.49192 88.5372 4.42539V4.32559H88.6372V4.42539C88.6372 4.45865 88.6706 4.45865 88.7039 4.45865H88.8373C88.8706 4.45865 88.904 4.45865 88.904 4.42539V4.2258C88.904 4.19254 88.8706 4.15927 88.7706 4.15927H88.7373C88.7039 4.15927 88.6706 4.15927 88.6706 4.19254V4.2258H88.5705Z" fill="#214476"/>
<path d="M89.4375 4.19254C89.4375 4.2258 89.4375 4.25906 89.4708 4.25906C89.5042 4.25906 89.5375 4.29233 89.5375 4.35886V4.45865C89.5375 4.52518 89.4708 4.55845 89.3708 4.55845H89.2374C89.1374 4.55845 89.0707 4.52518 89.0707 4.45865V4.12601H89.1707V4.45865C89.1707 4.49192 89.2041 4.49192 89.2374 4.49192H89.3708C89.4042 4.49192 89.4375 4.49192 89.4375 4.45865V4.35886C89.4375 4.32559 89.4375 4.32559 89.4042 4.29233C89.3708 4.29233 89.3708 4.25906 89.3708 4.19254H89.4375Z" fill="#214476"/>
<path d="M89.8043 4.15927H89.7376C89.7042 4.15927 89.6709 4.15927 89.6709 4.19254V4.42539C89.6709 4.45865 89.7042 4.45865 89.7376 4.45865H89.971C90.0043 4.45865 90.0377 4.45865 90.0377 4.42539V4.19254C90.0377 4.15927 90.0043 4.15927 89.971 4.15927H89.9043V4.29233H89.8043V4.15927ZM89.5709 4.19254C89.5709 4.12601 89.6376 4.09274 89.7376 4.09274H89.8043V4.05948H89.9043V4.09274H89.971C90.071 4.09274 90.1377 4.12601 90.1377 4.19254V4.42539C90.1377 4.49192 90.071 4.52518 89.971 4.52518H89.7376C89.6376 4.52518 89.5709 4.49192 89.5709 4.42539V4.19254Z" fill="#214476"/>
<path d="M90.2711 4.29233V4.42539C90.2711 4.45865 90.3045 4.45865 90.3378 4.45865H90.4712C90.5045 4.45865 90.5379 4.45865 90.5379 4.42539V4.25906C90.5379 4.2258 90.5045 4.2258 90.4712 4.2258H90.4378C90.3378 4.2258 90.3045 4.19254 90.3045 4.12601H90.4045C90.4045 4.15927 90.4045 4.19254 90.4378 4.19254H90.4712C90.5712 4.19254 90.6379 4.2258 90.6379 4.29233V4.45865C90.6379 4.52518 90.5712 4.55845 90.4712 4.55845H90.3378C90.2378 4.55845 90.1711 4.52518 90.1711 4.45865V4.32559H90.2711V4.29233Z" fill="#214476"/>
<path d="M90.938 4.15927H90.8713C90.838 4.15927 90.8046 4.15927 90.8046 4.19254V4.42539C90.8046 4.45865 90.838 4.45865 90.8713 4.45865H91.1048C91.1381 4.45865 91.1714 4.45865 91.1714 4.42539V4.19254C91.1714 4.15927 91.1381 4.15927 91.1048 4.15927H91.0381V4.29233H90.938V4.15927ZM90.6713 4.19254C90.6713 4.12601 90.738 4.09274 90.838 4.09274H90.9047V4.05948H91.0047V4.09274H91.0714C91.1715 4.09274 91.2381 4.12601 91.2381 4.19254V4.42539C91.2381 4.49192 91.1715 4.52518 91.0714 4.52518H90.838C90.738 4.52518 90.6713 4.49192 90.6713 4.42539V4.19254Z" fill="#214476"/>
<path d="M91.3048 4.52518V4.19254C91.3048 4.12601 91.3715 4.09274 91.4716 4.09274H91.605C91.705 4.09274 91.7717 4.12601 91.7717 4.19254V4.52518H91.6717V4.19254C91.6717 4.15927 91.6383 4.15927 91.605 4.15927H91.4716C91.4382 4.15927 91.4049 4.15927 91.4049 4.19254V4.52518H91.3048Z" fill="#214476"/>
<path d="M91.7383 3.85988V2.62909H91.3715V3.85988H91.3382V2.36298H90.938V3.85988H90.9047V3.02827H90.5045V3.85988H90.4712V2.59583H90.0711V3.85988H90.0377V2.39624H89.6709V3.85988H89.6042V2.26319H89.2374V3.85988H89.1707V2.09686H88.8039V3.85988H88.7706V3.19459H88.3704V3.85988H88.3371V2.86195H87.9369V3.85988H87.9036V3.49397H87.5368V3.89314H91.7383V3.85988Z" fill="#214476"/>
<path d="M41.153 6.98673C41.153 7.01999 41.153 7.05325 41.1863 7.05325C41.2197 7.05325 41.253 7.08652 41.253 7.15305V7.25284C41.253 7.31937 41.1863 7.35263 41.0863 7.35263H40.9529C40.8529 7.35263 40.7862 7.31937 40.7862 7.25284V6.9202H40.8862V7.25284C40.8862 7.28611 40.9195 7.28611 40.9529 7.28611H41.0863C41.1196 7.28611 41.153 7.28611 41.153 7.25284V7.15305C41.153 7.11978 41.153 7.11978 41.1196 7.08652C41.0863 7.08652 41.0863 7.05325 41.0863 6.98673H41.153Z" fill="#214476"/>
<path d="M41.3865 7.11978V7.25284C41.3865 7.28611 41.4198 7.28611 41.4531 7.28611H41.5865C41.6199 7.28611 41.6532 7.28611 41.6532 7.25284V7.08652C41.6532 7.05325 41.6199 7.05325 41.5865 7.05325H41.5532C41.4532 7.05325 41.4198 7.01999 41.4198 6.95346H41.5198C41.5198 6.98673 41.5198 7.01999 41.5532 7.01999H41.5865C41.6866 7.01999 41.7533 7.05325 41.7533 7.11978V7.28611C41.7533 7.35263 41.6866 7.3859 41.5865 7.3859H41.4531C41.3531 7.3859 41.2864 7.35263 41.2864 7.28611V7.15305H41.3865V7.11978Z" fill="#214476"/>
<path d="M41.8199 7.01999C41.8199 6.95346 41.8866 6.9202 41.9866 6.9202H42.02C42.0533 6.9202 42.12 6.9202 42.1534 6.95346V6.9202H42.2534V7.25284C42.2534 7.31937 42.1867 7.35263 42.0867 7.35263H41.9533C41.8533 7.35263 41.7866 7.31937 41.7866 7.25284V7.15305H41.8866V7.25284C41.8866 7.28611 41.9199 7.28611 41.9533 7.28611H42.0867C42.12 7.28611 42.1534 7.28611 42.1534 7.25284V7.05325C42.1534 7.01999 42.12 6.98673 42.02 6.98673H41.9866C41.9533 6.98673 41.92 6.98673 41.92 7.01999V7.05325H41.8199V7.01999Z" fill="#214476"/>
<path d="M42.6869 6.98673C42.6869 7.01999 42.6869 7.05325 42.7202 7.05325C42.7536 7.05325 42.7869 7.08652 42.7869 7.15305V7.25284C42.7869 7.31937 42.7202 7.35263 42.6202 7.35263H42.4868C42.3868 7.35263 42.3201 7.31937 42.3201 7.25284V6.9202H42.4201V7.25284C42.4201 7.28611 42.4535 7.28611 42.4868 7.28611H42.6202C42.6535 7.28611 42.6869 7.28611 42.6869 7.25284V7.15305C42.6869 7.11978 42.6869 7.11978 42.6535 7.08652C42.6202 7.08652 42.6202 7.05325 42.6202 6.98673H42.6869Z" fill="#214476"/>
<path d="M43.0537 6.98673H42.987C42.9536 6.98673 42.9203 6.98673 42.9203 7.01999V7.25284C42.9203 7.28611 42.9536 7.28611 42.987 7.28611H43.2204C43.2537 7.28611 43.2871 7.28611 43.2871 7.25284V7.01999C43.2871 6.98673 43.2537 6.98673 43.2204 6.98673H43.1537V7.11978H43.0537V6.98673ZM42.8203 7.01999C42.8203 6.95346 42.8869 6.9202 42.987 6.9202H43.0537V6.88693H43.1537V6.9202H43.2204C43.3204 6.9202 43.3871 6.95346 43.3871 7.01999V7.25284C43.3871 7.31937 43.3204 7.35264 43.2204 7.35264H42.987C42.8869 7.35264 42.8203 7.31937 42.8203 7.25284V7.01999Z" fill="#214476"/>
<path d="M43.5205 7.11978V7.25284C43.5205 7.28611 43.5539 7.28611 43.5872 7.28611H43.7206C43.7539 7.28611 43.7873 7.28611 43.7873 7.25284V7.08652C43.7873 7.05325 43.7539 7.05325 43.7206 7.05325H43.6872C43.5872 7.05325 43.5539 7.01999 43.5539 6.95346H43.6539C43.6539 6.98673 43.6539 7.01999 43.6872 7.01999H43.7206C43.8206 7.01999 43.8873 7.05325 43.8873 7.11978V7.28611C43.8873 7.35263 43.8206 7.3859 43.7206 7.3859H43.5872C43.4872 7.3859 43.4205 7.35263 43.4205 7.28611V7.15305H43.5205V7.11978Z" fill="#214476"/>
<path d="M44.1875 6.98673H44.1208C44.0874 6.98673 44.0541 6.98673 44.0541 7.01999V7.25284C44.0541 7.28611 44.0874 7.28611 44.1208 7.28611H44.3542C44.3875 7.28611 44.4209 7.28611 44.4209 7.25284V7.01999C44.4209 6.98673 44.3875 6.98673 44.3542 6.98673H44.2875V7.11978H44.1875V6.98673ZM43.954 7.01999C43.954 6.95346 44.0207 6.9202 44.1208 6.9202H44.1875V6.88693H44.2875V6.9202H44.3542C44.4542 6.9202 44.5209 6.95346 44.5209 7.01999V7.25284C44.5209 7.31937 44.4542 7.35264 44.3542 7.35264H44.1208C44.0207 7.35264 43.954 7.31937 43.954 7.25284V7.01999Z" fill="#214476"/>
<path d="M44.5542 7.35263V7.01999C44.5542 6.95346 44.6209 6.9202 44.721 6.9202H44.8543C44.9544 6.9202 45.0211 6.95346 45.0211 7.01999V7.35263H44.921V7.01999C44.921 6.98673 44.8877 6.98673 44.8543 6.98673H44.721C44.6876 6.98673 44.6543 6.98673 44.6543 7.01999V7.35263H44.5542Z" fill="#214476"/>
<path d="M45.0211 6.6541V5.42331H44.6209V6.6541H44.5876V5.1572H44.2208V6.6541H44.1541V5.85575H43.7873V6.6541H43.7206V5.39005H43.3538V6.6541H43.2871V5.19046H42.9203V6.6541H42.8536V5.09067H42.4868V6.6541H42.4535V4.92435H42.0533V6.6541H42.02V5.98881H41.6198V6.6541H41.5865V5.65617H41.1863V6.6541H41.153V6.32146H40.7528V6.72063H45.0211V6.6541Z" fill="#214476"/>
</svg>
