<svg id="Layer_1" data-name="Layer 1" xmlns="http://www.w3.org/2000/svg" width="1653.55" height="1080" viewBox="0 0 1653.55 1080"><defs><style>.cls-1{fill:#fe7155;}.cls-2{fill:#90caf9;}.cls-3{fill:#9fcf88;}.cls-4{fill:#fcb765;}.cls-5{fill:#214476;}</style></defs><path class="cls-1" d="M1211.62,175.86h-99.78a58.24,58.24,0,0,0-58.23,58.24v32a91.83,91.83,0,0,1,32.26,49.58l.16.64.14.65,29.15,136.33A59.65,59.65,0,0,1,1083.11,521v43.73a38.78,38.78,0,0,0,38.83,38.82h79.71a38.77,38.77,0,0,0,38.82-38.82V409.05h3.5a26,26,0,0,0,25.88-25.88V234.1A58.32,58.32,0,0,0,1211.62,175.86Z"/><path class="cls-2" d="M593.47,387a92,92,0,0,1,47.25-80.32l-13.6-47.92a58.14,58.14,0,0,0-56.42-43.87H473.52a58.28,58.28,0,0,0-56.42,43.87L365,442.59a25.92,25.92,0,0,0,25.1,32.22H443.5v89.92a38.77,38.77,0,0,0,38.82,38.82H562a38.78,38.78,0,0,0,38.83-38.82V495.31a59.19,59.19,0,0,1-7.39-28.65Z"/><path class="cls-3" d="M792.64,503.82a59.18,59.18,0,0,1-10.91-50.5l25.69-120.14a57.9,57.9,0,0,0-22.21-4.42H685.43A58.39,58.39,0,0,0,627.2,387v79.67a25.6,25.6,0,0,0,1.35,8.15,26,26,0,0,0,11.34,14.06,25.65,25.65,0,0,0,13.19,3.67h3.63v72.19a38.77,38.77,0,0,0,38.82,38.82h79.71a38.77,38.77,0,0,0,38.82-38.82V521.06A59.47,59.47,0,0,1,792.64,503.82Z"/><path class="cls-4" d="M1082.44,460.87l-11.39-53.27L1053.61,326l-.42-2a58.15,58.15,0,0,0-56.42-43.87H900.28a58.08,58.08,0,0,0-54.45,37.75,59,59,0,0,0-2,6.12l-2.75,12.87-4.76,22.27L814.61,460.87a25.84,25.84,0,0,0,25.11,32.22h30.41v71.64A38.77,38.77,0,0,0,909,603.55H988.1a38.77,38.77,0,0,0,38.82-38.82V493.09h30.41a25.87,25.87,0,0,0,25.78-23.24v-4.7A25.69,25.69,0,0,0,1082.44,460.87Z"/><path class="cls-5" d="M1281.27,70.4H1240A78.64,78.64,0,0,0,1163.19,0c-43.92-.74-79.87,36.37-79.87,80.3v2.3a4,4,0,0,0,4,4h193.91a8.13,8.13,0,1,0,0-16.26Zm-117-54.1c30.42,1.16,54.63,24.72,59.07,54.1H1100.17A62.32,62.32,0,0,1,1164.25,16.3Z"/><path class="cls-5" d="M413.42,117.55a8.13,8.13,0,0,0,8.13,8.13H596.77a4.05,4.05,0,0,0,4.05-4.05v-2.3c0-43.93-36-81-79.87-80.3a78.64,78.64,0,0,0-76.76,70.39H421.55A8.13,8.13,0,0,0,413.42,117.55ZM584,109.42H460.82c4.44-29.38,28.65-52.94,59.07-54.1A62.32,62.32,0,0,1,584,109.42Z"/><path class="cls-5" d="M1207.53,100.09a50.45,50.45,0,0,1-91.44,0H1086l-74.14,36.26a78.68,78.68,0,0,0-142,46.63c0,1.18,0,2.34.09,3.5l-62.24,14.19a78.67,78.67,0,0,0-134-18L597.2,141.87H566.55A51,51,0,0,1,558.34,153a50.49,50.49,0,0,1-80.57-11.11H447.3a78.66,78.66,0,0,0,136.5,24.71l76.61,40.91A78.68,78.68,0,1,0,814,231.57c0-1.17,0-2.34-.09-3.5l62.24-14.18a78.69,78.69,0,0,0,148.09-52.29l74.19-36.29a78.65,78.65,0,0,0,139-25.22ZM785.74,234.49a46.73,46.73,0,1,1,.15-2.92C785.89,232.56,785.8,233.52,785.74,234.49Zm162.78-.93A50.67,50.67,0,0,1,898,183c0-1,.09-1.95.15-2.92a50.52,50.52,0,0,1,100.19-5.77,49.8,49.8,0,0,1,.81,8.69A50.64,50.64,0,0,1,948.52,233.56Z"/><path class="cls-5" d="M1138.06,60.1h2.15v1.08h-3.54a.78.78,0,0,1-.53-.19.57.57,0,0,1-.22-.44V58.23a.56.56,0,0,1,.22-.44.78.78,0,0,1,.53-.19h5.15V55.82h-5.36a2.87,2.87,0,0,0-1.9.66,2,2,0,0,0-.78,1.57v2.68a2,2,0,0,0,.78,1.58,2.94,2.94,0,0,0,1.9.65h5.89V58.67h-4.29Z"/><path class="cls-5" d="M1148.46,60.1a2.47,2.47,0,0,0,1.73-.65,1.89,1.89,0,0,0,0-3,2.47,2.47,0,0,0-1.73-.65H1145a2.87,2.87,0,0,0-1.9.66,2,2,0,0,0-.78,1.57v2.68a2,2,0,0,0,.78,1.58,2.94,2.94,0,0,0,1.9.65h5.36V61.18h-5.26a.68.68,0,0,1-.45-.17.48.48,0,0,1-.19-.37V60.1Zm-4-2a.5.5,0,0,1,.19-.38.73.73,0,0,1,.45-.16h3a.66.66,0,0,1,.45.15.48.48,0,0,1,.18.39.48.48,0,0,1-.18.38.66.66,0,0,1-.45.15h-3.65Z"/><path class="cls-5" d="M1156.81,55.82h-3.21a2.83,2.83,0,0,0-1.89.66,2,2,0,0,0-.79,1.57v2.68a2,2,0,0,0,.79,1.58,2.89,2.89,0,0,0,1.89.65h3.21a2.94,2.94,0,0,0,1.9-.65,2,2,0,0,0,.78-1.58V58.05a2,2,0,0,0-.78-1.57A2.87,2.87,0,0,0,1156.81,55.82Zm.54,4.73a.53.53,0,0,1-.22.44.84.84,0,0,1-.53.19h-2.79a.84.84,0,0,1-.53-.19.56.56,0,0,1-.21-.44V58.23a.55.55,0,0,1,.21-.44.78.78,0,0,1,.53-.19h2.79a.78.78,0,0,1,.53.19.53.53,0,0,1,.22.44Z"/><path class="cls-5" d="M1165.6,58.67h-3.33a.67.67,0,0,1-.45-.16.48.48,0,0,1,0-.75.73.73,0,0,1,.45-.16h5.26V55.82H1162a2.47,2.47,0,0,0-1.73.65,1.89,1.89,0,0,0,0,3,2.47,2.47,0,0,0,1.73.65h3.33a.68.68,0,0,1,.45.17.44.44,0,0,1,.19.37.46.46,0,0,1-.19.37.68.68,0,0,1-.45.17H1160V63h5.58a2.52,2.52,0,0,0,1.73-.64,2,2,0,0,0,.73-1.5,1.94,1.94,0,0,0-.73-1.5A2.51,2.51,0,0,0,1165.6,58.67Z"/><polygon class="cls-5" points="1168.06 57.6 1170.74 57.6 1170.74 62.96 1172.88 62.96 1172.88 57.6 1175.56 57.6 1175.56 55.82 1168.06 55.82 1168.06 57.6"/><path class="cls-5" d="M1181.46,55.82h-5.36V57.6h5.25a.73.73,0,0,1,.45.16.47.47,0,0,1,.19.38v.53h-4a2.54,2.54,0,0,0-1.74.65,2,2,0,0,0-.73,1.5,2,2,0,0,0,.73,1.5A2.53,2.53,0,0,0,1178,63h6.1V58.05a2,2,0,0,0-.78-1.57A2.85,2.85,0,0,0,1181.46,55.82Zm.53,5.36h-3.64a.68.68,0,0,1-.45-.17.46.46,0,0,1-.19-.37.44.44,0,0,1,.19-.37.68.68,0,0,1,.45-.17H1182Z"/><polygon class="cls-5" points="1184.13 57.6 1186.81 57.6 1186.81 62.96 1188.96 62.96 1188.96 57.6 1191.64 57.6 1191.64 55.82 1184.13 55.82 1184.13 57.6"/><polygon class="cls-5" points="1191.7 52.84 1191.7 35.86 1186.47 35.86 1186.47 52.84 1185.84 52.84 1185.84 32.25 1180.61 32.25 1180.61 52.84 1179.98 52.84 1179.98 41.65 1174.75 41.65 1174.75 52.84 1174.12 52.84 1174.12 35.5 1168.89 35.5 1168.89 52.84 1168.26 52.84 1168.26 32.72 1163.04 32.72 1163.04 52.84 1162.4 52.84 1162.4 31.24 1157.18 31.24 1157.18 52.84 1156.55 52.84 1156.55 28.88 1151.32 28.88 1151.32 52.84 1150.69 52.84 1150.69 43.7 1145.46 43.7 1145.46 52.84 1144.83 52.84 1144.83 39.17 1139.6 39.17 1139.6 52.84 1138.97 52.84 1138.97 48.16 1133.75 48.16 1133.75 53.38 1133.75 53.38 1133.75 53.64 1191.7 53.64 1191.7 52.84 1191.7 52.84"/><path class="cls-5" d="M496.9,98.65H499v1.07H495.5a.83.83,0,0,1-.53-.18.56.56,0,0,1-.21-.44V96.77a.56.56,0,0,1,.21-.44.83.83,0,0,1,.53-.18h5.15V94.37h-5.36a2.82,2.82,0,0,0-1.89.65,2,2,0,0,0-.79,1.57v2.68a2,2,0,0,0,.79,1.58,2.86,2.86,0,0,0,1.89.66h5.89V97.22H496.9Z"/><path class="cls-5" d="M507.29,98.65A2.56,2.56,0,0,0,509,98a1.91,1.91,0,0,0,0-3,2.55,2.55,0,0,0-1.74-.64h-3.43A2.82,2.82,0,0,0,502,95a2,2,0,0,0-.79,1.57v2.68a2,2,0,0,0,.79,1.58,2.86,2.86,0,0,0,1.89.66h5.36V99.72H504a.64.64,0,0,1-.45-.16.47.47,0,0,1-.19-.38v-.53Zm-4-2a.47.47,0,0,1,.19-.37.64.64,0,0,1,.45-.16h3a.69.69,0,0,1,.46.15.5.5,0,0,1,.17.38.51.51,0,0,1-.17.39.69.69,0,0,1-.46.15h-3.64Z"/><path class="cls-5" d="M515.64,94.37h-3.21a2.82,2.82,0,0,0-1.89.65,2,2,0,0,0-.79,1.57v2.68a2,2,0,0,0,.79,1.58,2.86,2.86,0,0,0,1.89.66h3.21a2.87,2.87,0,0,0,1.9-.66,2,2,0,0,0,.78-1.58V96.59a2,2,0,0,0-.78-1.57A2.87,2.87,0,0,0,515.64,94.37Zm.54,4.73a.54.54,0,0,1-.22.44.83.83,0,0,1-.53.18h-2.78a.86.86,0,0,1-.54-.18.56.56,0,0,1-.21-.44V96.77a.56.56,0,0,1,.21-.44.86.86,0,0,1,.54-.18h2.78a.83.83,0,0,1,.53.18.54.54,0,0,1,.22.44Z"/><path class="cls-5" d="M524.43,97.22h-3.32a.67.67,0,0,1-.45-.16.47.47,0,0,1,0-.75.67.67,0,0,1,.45-.16h5.25V94.37h-5.57a2.53,2.53,0,0,0-1.74.64,1.9,1.9,0,0,0,0,3,2.54,2.54,0,0,0,1.74.65h3.32a.67.67,0,0,1,.45.16.47.47,0,0,1,0,.75.67.67,0,0,1-.45.16h-5.25v1.79h5.57a2.56,2.56,0,0,0,1.74-.65,1.91,1.91,0,0,0,0-3A2.56,2.56,0,0,0,524.43,97.22Z"/><polygon class="cls-5" points="526.89 96.15 529.57 96.15 529.57 101.51 531.72 101.51 531.72 96.15 534.4 96.15 534.4 94.36 526.89 94.36 526.89 96.15"/><path class="cls-5" d="M540.29,94.37h-5.36v1.78h5.25a.67.67,0,0,1,.45.16.48.48,0,0,1,.2.37v.54h-4a2.56,2.56,0,0,0-1.74.65,1.91,1.91,0,0,0,0,3,2.56,2.56,0,0,0,1.74.65H543V96.59a2,2,0,0,0-.79-1.57A2.82,2.82,0,0,0,540.29,94.37Zm.54,5.35h-3.65a.67.67,0,0,1-.45-.16.47.47,0,0,1,0-.75.67.67,0,0,1,.45-.16h3.65Z"/><polygon class="cls-5" points="542.97 96.15 545.65 96.15 545.65 101.51 547.79 101.51 547.79 96.15 550.47 96.15 550.47 94.36 542.97 94.36 542.97 96.15"/><polygon class="cls-5" points="550.53 91.39 550.53 74.4 545.3 74.4 545.3 91.39 544.67 91.39 544.67 70.8 539.44 70.8 539.44 91.39 538.81 91.39 538.81 80.2 533.59 80.2 533.59 91.39 532.95 91.39 532.95 74.05 527.73 74.05 527.73 91.39 527.1 91.39 527.1 71.27 521.87 71.27 521.87 91.39 521.24 91.39 521.24 69.79 516.01 69.79 516.01 91.39 515.38 91.39 515.38 67.43 510.15 67.43 510.15 91.39 509.52 91.39 509.52 82.25 504.29 82.25 504.29 91.39 503.66 91.39 503.66 77.72 498.44 77.72 498.44 91.39 497.8 91.39 497.8 86.71 492.58 86.71 492.58 91.93 492.58 91.93 492.58 92.19 550.53 92.19 550.53 91.39 550.53 91.39"/><path class="cls-5" d="M118.46,702A91.24,91.24,0,0,1,145,717.06L121.67,744a76.06,76.06,0,0,0-16.08-9.38A42.9,42.9,0,0,0,89,731.4q-17.7,0-27.61,16t-9.91,48.11q0,32.17,10,47.84t28,15.67a41,41,0,0,0,17.82-3.89,98.22,98.22,0,0,0,17.83-11.39l22,26.89a89,89,0,0,1-26.4,16.54,85.85,85.85,0,0,1-33.36,6.42q-26.53,0-46.23-11.44T10.72,848.47Q0,826.27,0,794.78,0,764.11,11,742T41.54,708.4q19.56-11.56,45-11.57A93.72,93.72,0,0,1,118.46,702Z"/><path class="cls-5" d="M282.2,736.49H218.69v42.35h55.47v31.89H218.69v42.88h67.8v34.57H169.11V701.92H287.29Z"/><path class="cls-5" d="M463.1,888.18H400.66L353.49,748l.8,5.62q2.68,18.5,4.16,34.71t1.47,36.85v63H316V701.92h61.1l48.78,140.7q-3.21-20.1-5-36.18a347.67,347.67,0,0,1-1.74-37V701.92h44Z"/><path class="cls-5" d="M600.45,702.81a86,86,0,0,1,29.08,17.93l-22.25,25.94Q588,731.4,566.82,731.4q-11,0-16.75,4.3t-5.77,12.07a13.94,13.94,0,0,0,3,9.15q3,3.62,9.92,6.94a207.67,207.67,0,0,0,22,8.32q28.68,9.15,42,23t13.26,38.34q0,17.78-9.11,31.35T598.84,886q-17.28,7.53-40.6,7.53-44.49,0-72.63-26.06L510,840.75Q532.25,859,556.36,859q12.6,0,19.57-5.7a18.57,18.57,0,0,0,7-15.14,20.49,20.49,0,0,0-2.68-11q-2.69-4.32-9.52-7.78a139.16,139.16,0,0,0-20-7.65q-31.63-9.94-44.49-23.94t-12.87-35.26q0-16.68,9-29.33t24.93-19.51q15.93-6.86,35.77-6.86Q584.24,696.83,600.45,702.81Z"/><path class="cls-5" d="M808.28,826.08q0,19.36-8.44,34.67t-25.33,24.06q-16.87,8.73-41.27,8.73-37,0-56-18.14t-19-49.32V701.92h49.58v123.9q0,17.13,6,25.13t19.43,8q13.39,0,19.3-8.15t5.89-25V701.92h49.85Z"/><path class="cls-5" d="M941.34,702.81a86,86,0,0,1,29.08,17.93l-22.24,25.94q-19.3-15.28-40.47-15.28-11,0-16.75,4.3c-3.85,2.87-5.76,6.89-5.76,12.07a14,14,0,0,0,2.94,9.15q3,3.62,9.92,6.94a207.16,207.16,0,0,0,22,8.32q28.66,9.15,41.94,23t13.26,38.34q0,17.78-9.11,31.35T939.73,886q-17.28,7.53-40.6,7.53-44.49,0-72.63-26.06l24.39-26.73Q873.14,859,897.26,859q12.59,0,19.56-5.7a18.57,18.57,0,0,0,7-15.14,20.49,20.49,0,0,0-2.68-11q-2.68-4.32-9.52-7.78a139.16,139.16,0,0,0-20-7.65q-31.64-9.94-44.49-23.94t-12.86-35.26q0-16.68,9-29.33t24.93-19.51q15.95-6.86,35.78-6.86Q925.13,696.83,941.34,702.81Z"/><path class="cls-5" d="M1154.93,709.63q14.61,7.18,22.11,19.24a49.52,49.52,0,0,1,7.51,26.68,67.22,67.22,0,0,1-5.36,26.82q-5.37,12.45-20,29.26t-43,42h72.36l-5.09,34.57H1062.07V856.56q31.89-31.68,46.9-48.34t20.91-27.54a45.18,45.18,0,0,0,5.89-21.62q0-10.18-5.63-16.11T1114.6,737a31.87,31.87,0,0,0-16.75,4.42q-7.38,4.42-14.87,14.07l-27.61-22.08a82.38,82.38,0,0,1,27.74-22.79q16.22-8.19,36.58-8.19Q1140.33,702.46,1154.93,709.63Z"/><path class="cls-5" d="M1334.09,727.18q18.23,24.74,18.22,70.68t-18.22,70.82q-18.22,24.87-52.53,24.86t-52.66-24.86q-18.36-24.85-18.36-70.82,0-46.22,18.36-70.81t52.66-24.59Q1315.87,702.46,1334.09,727.18Zm-65.66,15.39q-4.83,5.55-7,18.66t-2.14,36.63q0,23.8,2.14,36.91t7,18.66q4.83,5.54,13.13,5.54t13-5.27q4.68-5.28,6.83-18.39t2.15-37.45q0-24.33-2.15-37.44t-6.83-18.25q-4.69-5.14-13-5.14T1268.43,742.57Z"/><path class="cls-5" d="M1465,709.63q14.6,7.18,22.11,19.24a49.51,49.51,0,0,1,7.5,26.68,67.22,67.22,0,0,1-5.36,26.82q-5.35,12.45-20,29.26t-43,42h72.36l-5.09,34.57h-121.4V856.56q31.89-31.68,46.9-48.34t20.9-27.54a45.08,45.08,0,0,0,5.9-21.62q0-10.18-5.63-16.11T1424.67,737a31.92,31.92,0,0,0-16.75,4.42q-7.37,4.42-14.87,14.07l-27.6-22.08a82.34,82.34,0,0,1,27.73-22.79q16.21-8.19,36.59-8.19Q1450.4,702.46,1465,709.63Z"/><path class="cls-5" d="M1653.55,850.66H1634v37.52h-46.63l-.27-37.52H1510.7V820.11l50.66-118.19,40.73,14.77-42.34,99.4h27.87l5.36-41.27h41v41.27h19.57Z"/><path class="cls-5" d="M16.46,1065.28H51l-1.87,12.1H0V991.2H16.46Z"/><path class="cls-5" d="M111.38,1003.3H79.57v24.32h27.69v12.1H79.57v25.56h34.05v12.1H63.11V991.2h50Z"/><path class="cls-5" d="M182.84,1003.3H160.39v74.08H143.8V1003.3H120.61V991.2h64Z"/><path class="cls-5" d="M193.07,991.2h15.34l-2.12,34h-11Z"/><path class="cls-5" d="M265.9,991.72a40.39,40.39,0,0,1,12.6,7.67l-8.1,9.27a32,32,0,0,0-9.3-5.61,28.29,28.29,0,0,0-10-1.75q-6,0-9.66,2.78a9.21,9.21,0,0,0-3.68,7.82,9.91,9.91,0,0,0,1.43,5.55,13.31,13.31,0,0,0,5.18,4.14,73.93,73.93,0,0,0,11.1,4.26q12.72,4,19.14,10T281,1053.3a24.86,24.86,0,0,1-3.93,13.86,26.17,26.17,0,0,1-11.29,9.44,41.3,41.3,0,0,1-17.46,3.4,48.64,48.64,0,0,1-17.65-3,41.49,41.49,0,0,1-13.41-8.25l8.48-9.43a38.41,38.41,0,0,0,10.36,6.42A31,31,0,0,0,248,1067.9q7.1,0,11.47-3.49t4.36-9.83a12.37,12.37,0,0,0-1.49-6.4,13.15,13.15,0,0,0-5.12-4.53,61.87,61.87,0,0,0-10.47-4.2q-13.72-4.28-19.83-10.33t-6.11-15.86a21.57,21.57,0,0,1,3.74-12.6,24.59,24.59,0,0,1,10.41-8.43,36.28,36.28,0,0,1,15.16-3A45.09,45.09,0,0,1,265.9,991.72Z"/><path class="cls-5" d="M366.93,991.72a40.5,40.5,0,0,1,12.6,7.67l-8.11,9.27a31.92,31.92,0,0,0-9.29-5.61,28.37,28.37,0,0,0-10-1.75q-6,0-9.67,2.78a9.24,9.24,0,0,0-3.68,7.82,9.91,9.91,0,0,0,1.44,5.55,13.27,13.27,0,0,0,5.17,4.14,74.81,74.81,0,0,0,11.1,4.26q12.72,4,19.15,10T382,1053.3a24.86,24.86,0,0,1-3.93,13.86,26.11,26.11,0,0,1-11.29,9.44,41.23,41.23,0,0,1-17.46,3.4,48.64,48.64,0,0,1-17.65-3,41.55,41.55,0,0,1-13.4-8.25l8.48-9.43a38.21,38.21,0,0,0,10.35,6.42A31,31,0,0,0,349,1067.9q7.11,0,11.47-3.49t4.37-9.83a12.37,12.37,0,0,0-1.5-6.4,13.18,13.18,0,0,0-5.11-4.53,62,62,0,0,0-10.48-4.2q-13.73-4.28-19.83-10.33t-6.11-15.86a21.65,21.65,0,0,1,3.74-12.6,24.68,24.68,0,0,1,10.42-8.43,36.2,36.2,0,0,1,15.15-3A45.15,45.15,0,0,1,366.93,991.72Z"/><path class="cls-5" d="M444.38,1003.3h-31.8v24.32h27.69v12.1H412.58v25.56h34.05v12.1H396.11V991.2h50Z"/><path class="cls-5" d="M510.48,1003.3h-31.8v24.32h27.69v12.1H478.68v25.56h34.05v12.1H462.22V991.2h50Z"/><path class="cls-5" d="M606.64,1038.84H576v38.54H559.5V991.2H576v35.54h30.68V991.2h16.59v86.18H606.64Z"/><path class="cls-5" d="M696.44,994.49a34,34,0,0,1,13,15.49q4.54,10.2,4.55,24.56T709.41,1059a35.11,35.11,0,0,1-13.09,15.62,36.39,36.39,0,0,1-20,5.41q-11.6,0-20.08-5.29a34.27,34.27,0,0,1-13.09-15.49q-4.62-10.2-4.62-24.56,0-14.1,4.62-24.36a34.87,34.87,0,0,1,13.15-15.68,36.61,36.61,0,0,1,20-5.42Q688,989.2,696.44,994.49Zm-35.29,14.83q-5.25,8-5.24,25.35,0,33.22,20.45,33.23,10,0,15.16-8t5.17-25.41q0-17.32-5.17-25.28t-15.16-8Q666.39,1001.3,661.15,1009.32Z"/><path class="cls-5" d="M806,1077.38H784.5l-13.1-68.72-13.47,68.72H737.1L721.51,991.2h16.34l11,73.09,14.09-73.09h17.46l13.84,73.09,12-73.09h15.59Z"/><path class="cls-5" d="M946.76,1077.38H930.67l-2.25-36q-1.12-19.33-1.12-30.68v-4.5L911.58,1068H896l-16.71-62q.26,8.24.25,12.47,0,11.35-.75,23.33l-2.12,35.54h-16l6.86-86.18h21.2l15.34,60.36,14.47-60.36H940Z"/><path class="cls-5" d="M1002.88,1057.43H974.32l-5.36,20H951.87l26.82-86.18H999l26.7,86.18h-17.46Zm-3.37-12.1-11-41.53-11,41.53Z"/><path class="cls-5" d="M1098.92,1077.38h-21.33L1048,1007.66q1.13,9.24,1.68,16.71t.56,17.84v35.17h-15V991.2h20.83l30,69.84q-.74-5-1.49-13.16t-.75-16.27V991.2h15Z"/><path class="cls-5" d="M1153.17,1044.7v32.68h-16.71v-32.55l-27.69-53.63H1127l18.21,40,18.21-40h17.46Z"/><path class="cls-5" d="M1298.34,1077.38h-21.45l-13.09-68.72-13.47,68.72H1229.5l-15.59-86.18h16.34l11,73.09,14.1-73.09h17.46l13.84,73.09,12-73.09h15.59Z"/><path class="cls-5" d="M1374.55,1003.3h-31.81v24.32h27.69v12.1h-27.69v25.56h34v12.1h-50.51V991.2h50Z"/><path class="cls-5" d="M1463.85,1057.43h-28.56l-5.37,20h-17.08l26.81-86.18H1460l26.69,86.18h-17.46Zm-3.37-12.1-11-41.53-11,41.53Z"/><path class="cls-5" d="M1523.21,1042.83h-10.47v34.55h-16.46V991.2H1522q34.17,0,34.17,25.32,0,8.6-4.24,14.22t-13.22,9.1l22.58,37.54h-19ZM1512.74,1031H1523q7.85,0,11.91-3.43t4-11q0-7-4.18-10.17t-13.16-3.18h-8.85Z"/><path class="cls-5" d="M1620.75,1003.3h-31.81v24.32h27.69v12.1h-27.69v25.56h34v12.1h-50.51V991.2h50Z"/><path class="cls-5" d="M1650.62,1063.47a9.44,9.44,0,0,1,0,13.67,10.43,10.43,0,0,1-14.35,0,9.44,9.44,0,0,1,0-13.67,10.59,10.59,0,0,1,14.35,0Zm-.56-14.9h-13.35l-2-57.37h17.22Z"/></svg>