<svg width="66" height="65" viewBox="0 0 66 65" fill="none" xmlns="http://www.w3.org/2000/svg">
<path d="M57.8727 34.1651H30.8349V7.12724C30.8349 5.15228 29.2422 3.55957 27.2672 3.55957C27.1016 3.55957 26.9487 3.57231 26.783 3.5978C11.6714 5.57276 0 18.5056 0 34.1651C0 51.1498 13.8502 65 30.8349 65C46.4944 65 59.4272 53.3286 61.4149 38.2169C61.6825 36.2675 60.3064 34.4709 58.3569 34.2033C58.1913 34.1778 58.0384 34.1651 57.8727 34.1651ZM47.896 51.2135C38.4671 60.6296 23.2026 60.6168 13.7865 51.188C4.3704 41.7591 4.38314 26.4819 13.812 17.0785C16.6789 14.2116 20.2211 12.122 24.12 10.988V34.1651C24.12 37.8729 27.127 40.88 30.8349 40.88H54.012C52.878 44.7917 50.7756 48.3466 47.896 51.2135Z" fill="white"/>
<path d="M65.2119 26.5838C63.4154 12.7718 52.4703 1.82673 38.6455 0.0301567C36.696 -0.224677 34.9122 1.16417 34.6574 3.11364C34.6446 3.26654 34.6319 3.4067 34.6319 3.5596V30.5975H61.6698C63.6447 30.5975 65.2374 28.992 65.2374 27.0298C65.2374 26.8769 65.2247 26.7367 65.2119 26.5838ZM41.3468 23.8826V7.42033C49.2848 9.73932 55.49 15.9445 57.809 23.8826H41.3468Z" fill="white"/>
</svg>
