<svg width="66" height="65" viewBox="0 0 66 65" fill="none" xmlns="http://www.w3.org/2000/svg">
<path fill-rule="evenodd" clip-rule="evenodd" d="M18.5501 63.5432C18.0953 64.7166 16.7794 65.2987 15.6091 64.847C14.4357 64.3921 13.8535 63.0762 14.3053 61.9059C17.3767 53.9619 25.0903 48.3223 34.1106 48.3223C43.1309 48.3223 50.8444 53.9619 53.9159 61.9059C54.3676 63.0762 53.7855 64.3921 52.6151 64.847C51.4417 65.2987 50.1258 64.7166 49.674 63.5432C47.2605 57.3032 41.1995 52.8704 34.1106 52.8704C27.0217 52.8704 20.9606 57.3032 18.5501 63.5432Z" fill="white"/>
<path fill-rule="evenodd" clip-rule="evenodd" d="M39.5804 32.1979C39.5804 32.1979 38.5465 29.6449 38.4767 26.5977C38.3979 23.2261 39.4591 19.3633 43.6858 17.1984C51.2386 13.3356 60.5409 16.0523 64.6311 20.7641C65.1314 21.3402 65.3103 22.1225 65.1071 22.8562C64.907 23.59 64.3552 24.1721 63.6336 24.4147C63.6336 24.4147 59.9102 25.77 57.3694 30.8517C56.1141 33.3592 52.9092 36.0516 49.5043 36.9825C47.6244 37.4949 45.7051 37.4858 43.989 36.7945C42.2486 36.0941 40.6689 34.7024 39.6046 32.2586C39.5956 32.2404 39.5895 32.2192 39.5804 32.1979ZM43.7889 30.4757L43.801 30.503C44.2801 31.5794 44.9138 32.2646 45.69 32.5769C46.5025 32.9044 47.4152 32.8377 48.3066 32.5951C50.4442 32.0099 52.5151 30.3939 53.3004 28.8202C55.0317 25.3576 57.2087 23.1928 58.9764 21.886C55.4986 19.718 50.2077 18.9722 45.7597 21.2492C43.4311 22.4378 42.9793 24.636 43.0218 26.4916C43.0703 28.517 43.7009 30.2392 43.7889 30.4757Z" fill="white"/>
<path fill-rule="evenodd" clip-rule="evenodd" d="M28.0859 25.0211C25.5511 27.4043 23.1376 28.3351 20.9636 28.4261C17.686 28.5625 14.7813 26.7463 12.4952 24.1934C10.309 21.7495 8.69297 18.6841 7.79245 16.7406C5.81556 12.4866 0.58226 6.68939 0.58226 6.68939C0.0941013 6.14665 -0.102982 5.4038 0.0516525 4.69127C0.206287 3.97874 0.691413 3.38143 1.35846 3.08732C10.2454 -0.811885 21.0364 -1.83975 29.4685 4.91261C33.3889 8.0538 33.9074 12.05 33.0676 15.737C31.9548 20.6246 28.2375 24.8665 28.2375 24.8665C28.189 24.9211 28.1405 24.9726 28.0859 25.0211ZM24.8871 21.7859L24.8992 21.7708C25.2782 21.322 27.0126 19.1844 28.0738 16.5071C29.0834 13.9542 29.5322 10.7887 26.6245 8.46313C20.4846 3.54516 12.8317 3.81804 6.05813 6.13452C7.93193 8.44494 10.585 11.956 11.916 14.8244C12.6801 16.4708 14.0294 19.0874 15.885 21.1583C17.2342 22.6682 18.8351 23.9629 20.7726 23.8811C22.0521 23.8295 23.4014 23.1594 24.8871 21.7859Z" fill="white"/>
<path fill-rule="evenodd" clip-rule="evenodd" d="M34.814 51.0906C34.5411 52.3155 33.3253 53.0887 32.1003 52.8158C30.8754 52.5429 30.1022 51.3271 30.3751 50.1021C30.3751 50.1021 32.449 40.7574 30.3721 31.1003C29.038 24.9059 25.9817 18.5447 19.3203 14.6606C18.2378 14.0269 17.871 12.6352 18.5016 11.5497C19.1353 10.4673 20.527 10.1004 21.6125 10.7311C29.5049 15.3368 33.2404 22.8016 34.817 30.1422C37.1062 40.7877 34.814 51.0906 34.814 51.0906Z" fill="white"/>
<path fill-rule="evenodd" clip-rule="evenodd" d="M35.7934 38.9169C35.5447 40.1479 34.3441 40.9454 33.1161 40.6967C31.8851 40.4481 31.0876 39.2505 31.3363 38.0194C31.3363 38.0194 32.2883 32.7225 39.1832 26.2036C40.0958 25.3425 41.5361 25.3819 42.3972 26.2945C43.2613 27.2072 43.2188 28.6474 42.3092 29.5085C36.7454 34.7691 35.7934 38.9169 35.7934 38.9169Z" fill="white"/>
</svg>
