<svg width="40" height="40" viewBox="0 0 40 40" fill="none" xmlns="http://www.w3.org/2000/svg">
<path d="M38.6505 30.0556L27.4076 18.8012L29.1125 17.0949C29.5003 17.2325 29.9024 17.3126 30.3086 17.3126C31.2278 17.3126 32.1469 16.9614 32.8465 16.2612L34.297 14.8095C34.9761 14.1299 35.3495 13.2264 35.3495 12.2675C35.3495 11.3086 34.974 10.4051 34.297 9.72954L25.594 1.01718C24.2379 -0.335978 21.8744 -0.342138 20.5162 1.01718L19.0657 2.4689C18.0563 3.47914 17.7876 4.94113 18.2328 6.20599L8.29266 16.1545C7.03092 15.7109 5.56811 15.9799 4.55871 16.9881L3.10821 18.4398C1.709 19.8423 1.709 22.1194 3.10821 23.5219L11.8133 32.2342C12.4923 32.9139 13.393 33.2876 14.3511 33.2876C15.3092 33.2876 16.2119 32.9118 16.889 32.2342L18.3415 30.7825C19.3489 29.7723 19.6197 28.3082 19.1745 27.0434L20.8794 25.337L32.1223 36.5894C33.0209 37.4888 34.2047 37.9405 35.3864 37.9405C36.5681 37.9405 37.7519 37.4888 38.6505 36.5894C40.4498 34.7886 40.4498 31.8564 38.6505 30.0556ZM21.2425 4.64545L22.693 3.19373C22.8243 3.06437 22.9761 3.04383 23.0562 3.04383C23.1362 3.04383 23.288 3.06437 23.4193 3.19373L32.1243 11.9081C32.2536 12.0354 32.2741 12.1894 32.2741 12.2675C32.2741 12.3476 32.2556 12.5016 32.1243 12.633L30.6738 14.0847C30.4728 14.2859 30.1486 14.2859 29.9476 14.0847L21.2425 5.37233C21.0435 5.1711 21.0435 4.84667 21.2425 4.64545ZM16.1647 28.6039L14.7122 30.0556C14.4516 30.3164 14.2506 30.3164 13.988 30.0556L5.28293 21.3433C5.08392 21.142 5.08392 20.8176 5.28293 20.6164L6.73343 19.1647C6.83396 19.0641 6.96526 19.0148 7.09657 19.0148C7.22787 19.0148 7.35918 19.0641 7.45971 19.1647L16.1627 27.875C16.3638 28.0762 16.3638 28.4027 16.1627 28.6019L16.1647 28.6039ZM17.2521 24.6102L10.7238 18.0764L20.1531 8.63715L26.6814 15.1709L17.2521 24.6081V24.6102ZM36.4738 34.4108C35.8747 35.0104 34.8981 35.0145 34.297 34.4108L23.0541 23.1584L25.2309 20.9798L36.4738 32.2342C37.0728 32.8338 37.0728 33.8112 36.4738 34.4108ZM21.5421 38.46C21.5421 39.3101 20.8527 40 20.0033 40H1.53872C0.689346 40 0 39.3101 0 38.46C0 37.6099 0.689346 36.92 1.53872 36.92H20.0033C20.8527 36.92 21.5421 37.6099 21.5421 38.46Z" fill="white"/>
</svg>
