<svg width="101" height="65" viewBox="0 0 101 65" fill="none" xmlns="http://www.w3.org/2000/svg">
<path d="M31.3346 11.6361C31.3346 5.22126 26.1151 0 19.7003 0C13.2855 0 8.06778 5.22127 8.06778 11.6361C8.06778 18.0509 13.2855 23.2686 19.7003 23.2686C26.1151 23.2686 31.3346 18.0509 31.3346 11.6361ZM19.7003 7.21049C22.1402 7.21049 24.1241 9.19619 24.1241 11.6361C24.1241 14.0759 22.1402 16.0581 19.7003 16.0581C17.2622 16.0581 15.2783 14.0759 15.2783 11.6361C15.2783 9.19619 17.2622 7.21049 19.7003 7.21049Z" fill="white"/>
<path d="M3.60524 52.0859C5.59622 52.0859 7.21049 50.4734 7.21049 48.4806C7.21049 47.6156 7.30819 46.7667 7.4807 45.9378C7.96965 43.5888 9.12533 41.4224 10.8703 39.6788C13.2327 37.3163 16.3732 36.0172 19.7144 36.0172C20.5653 36.0172 21.4048 36.1052 22.2124 36.272C23.0371 36.4423 23.8286 36.6949 24.5625 37.0312C26.3633 37.8374 28.5075 37.0593 29.3384 35.2461C30.1657 33.4365 29.3665 31.2959 27.5551 30.4685C25.1716 29.3806 22.4606 28.8067 19.7144 28.8067C14.4474 28.8067 9.49545 30.8558 5.77226 34.5807C2.04907 38.3022 0 43.2382 0 48.4806C0 50.4734 1.61426 52.0859 3.60524 52.0859Z" fill="white"/>
<path d="M69.6122 11.6361C69.6122 18.0509 74.8317 23.2686 81.2465 23.2686C87.6613 23.2686 92.879 18.0509 92.879 11.6361C92.879 5.22126 87.6613 0 81.2465 0C74.8317 0 69.6122 5.22127 69.6122 11.6361ZM81.2465 16.0581C78.8066 16.0581 76.8227 14.0759 76.8227 11.6361C76.8227 9.19619 78.8066 7.21049 81.2465 7.21049C83.6846 7.21049 85.6685 9.19619 85.6685 11.6361C85.6685 14.0759 83.6846 16.0581 81.2465 16.0581Z" fill="white"/>
<path d="M81.2324 28.8067C78.4862 28.8067 75.7752 29.3806 73.3917 30.4685C71.5803 31.2959 70.7811 33.4365 71.6084 35.2461C72.4358 37.0593 74.58 37.8409 76.3843 37.0312C77.1182 36.6949 77.9097 36.4423 78.7344 36.272C79.542 36.1052 80.3815 36.0172 81.2324 36.0172C84.5736 36.0172 87.7141 37.3163 90.0765 39.6788C91.8215 41.4224 92.9772 43.5888 93.4661 45.9378C93.6386 46.7667 93.7363 47.6156 93.7363 48.4806C93.7363 50.4734 95.3506 52.0859 97.3416 52.0859C99.3326 52.0859 100.947 50.4734 100.947 48.4806C100.947 43.2382 98.8977 38.3022 95.1746 34.5807C91.4514 30.8558 86.4994 28.8067 81.2324 28.8067Z" fill="white"/>
<path d="M64.1691 16.1497C64.1691 8.59768 58.0254 2.45398 50.4734 2.45398C42.9214 2.45398 36.7777 8.59768 36.7777 16.1497C36.7777 23.7017 42.9214 29.8454 50.4734 29.8454C58.0254 29.8454 64.1691 23.7017 64.1691 16.1497ZM50.4734 9.66447C54.0487 9.66447 56.9586 12.5726 56.9586 16.1497C56.9586 19.7268 54.0487 22.6349 50.4734 22.6349C46.8981 22.6349 43.9882 19.7268 43.9882 16.1497C43.9882 12.5726 46.8981 9.66447 50.4734 9.66447Z" fill="white"/>
<path d="M30.2467 65C32.237 65 33.8506 63.3846 33.8515 61.3929C33.8515 61.3923 33.8515 61.3936 33.8515 61.3929C33.8515 52.2284 41.3089 44.7698 50.4734 44.7698C59.6379 44.7698 67.0948 52.2267 67.0948 61.3912C67.0948 61.3905 67.0948 61.3918 67.0948 61.3912C67.0957 63.3828 68.7098 64.9964 70.7001 64.9964C72.6911 64.9964 74.3053 63.3839 74.3053 61.3912C74.3053 48.2518 63.6146 37.5593 50.4734 37.5593C37.3322 37.5593 26.6415 48.2518 26.6415 61.3947C26.6415 63.3875 28.2557 65 30.2467 65Z" fill="white"/>
</svg>
