<svg width="70" height="40" viewBox="0 0 70 40" fill="none" xmlns="http://www.w3.org/2000/svg">
<path d="M6.43267 34.251C6.43267 34.838 6.55442 35.1619 6.79793 35.2429C7.54875 35.4048 7.91401 35.8704 7.91401 36.6396V38.3805C7.91401 39.4736 6.96027 40 5.05279 40H2.88152C0.97404 40 0.0203018 39.4534 0.0203018 38.3805V32.8137H1.68427V38.3805C1.68427 38.9068 2.09012 39.17 2.88152 39.17H5.0325C5.84419 39.17 6.22975 38.9068 6.22975 38.3805V36.6396C6.25004 36.2145 5.98624 35.9311 5.43835 35.7692C5.0325 35.6882 4.78899 35.1821 4.74841 34.2712H6.43267V34.251Z" fill="white"/>
<path d="M10.1258 36.0729V38.3806C10.1258 38.9069 10.5317 39.17 11.3231 39.17H13.4741C14.2858 39.17 14.6713 38.9069 14.6713 38.3806L14.7119 35.5668C14.7119 35.0405 14.306 34.7571 13.5147 34.7571H12.7233C11.2216 34.7571 10.4911 34.1296 10.4911 32.8542H12.1551C12.1551 33.583 12.3377 33.9474 12.7233 33.9474H13.5349C15.4424 33.9474 16.3962 34.4939 16.3962 35.5668L16.3556 38.3806C16.3556 39.4737 15.4018 40 13.4944 40H11.3231C9.41561 40 8.46187 39.4534 8.46187 38.3806V36.0729H10.1258Z" fill="white"/>
<path d="M17.3296 34.9392C17.3296 33.8461 18.2428 33.3198 20.0894 33.3198H20.8605C21.6113 33.3198 22.3824 33.502 23.1332 33.8664V32.8137H24.7972V38.3805C24.7972 39.4736 23.8435 40 21.936 40H19.785C17.8775 40 16.9238 39.4534 16.9238 38.3805L17.005 36.9433H18.6689L18.5878 38.3805C18.5878 38.9068 18.9936 39.17 19.785 39.17H21.936C22.7477 39.17 23.1332 38.9068 23.1332 38.3805V35.3441C23.0926 34.7368 22.3418 34.3319 20.8605 34.1295H20.1097C19.3589 34.1295 18.9936 34.3927 18.9936 34.9392L19.0748 35.7489H17.4108L17.3296 34.9392Z" fill="white"/>
<path d="M31.7169 34.251C31.7169 34.838 31.8386 35.1619 32.0821 35.2429C32.8329 35.4048 33.1982 35.8704 33.1982 36.6396V38.3805C33.1982 39.4736 32.2445 40 30.337 40H28.186C26.2785 40 25.3248 39.4534 25.3248 38.3805V32.8137H26.9888V38.3805C26.9888 38.9068 27.3946 39.17 28.186 39.17H30.337C31.1487 39.17 31.5342 38.9068 31.5342 38.3805V36.6396C31.5545 36.2145 31.2907 35.9311 30.7428 35.7692C30.337 35.6882 30.0935 35.1821 30.0529 34.2712H31.7169V34.251Z" fill="white"/>
<path d="M37.8046 33.9272H36.7088C35.8971 33.9272 35.5115 34.1903 35.5115 34.7369V38.3806C35.5115 38.9069 35.9174 39.1701 36.7088 39.1701H40.4628C41.2542 39.1701 41.6601 38.9069 41.6601 38.3806V34.7369C41.6601 34.2106 41.2542 33.9272 40.4628 33.9272H39.2859V36.3158H37.7843V33.9272H37.8046ZM33.8476 34.7976C33.8476 33.7045 34.8013 33.1782 36.6885 33.1782H37.7843V32.4292H39.2859V33.1782H40.4628C42.3703 33.1782 43.3241 33.7247 43.3241 34.7976V38.3806C43.3241 39.4737 42.3703 40.0001 40.4628 40.0001H36.7088C34.8013 40.0001 33.8476 39.4535 33.8476 38.3806V34.7976Z" fill="white"/>
<path d="M45.4344 36.0729V38.3806C45.4344 38.9069 45.8403 39.17 46.6317 39.17H48.7827C49.5944 39.17 49.9799 38.9069 49.9799 38.3806L50.0205 35.5668C50.0205 35.0405 49.6147 34.7571 48.8233 34.7571H48.0318C46.5302 34.7571 45.7997 34.1296 45.7997 32.8542H47.4637C47.4637 33.583 47.6463 33.9474 48.0318 33.9474H48.8435C50.751 33.9474 51.7048 34.4939 51.7048 35.5668L51.6642 38.3806C51.6642 39.4737 50.7104 40 48.803 40H46.652C44.7445 40 43.7908 39.4534 43.7908 38.3806V36.0729H45.4344Z" fill="white"/>
<path d="M56.2503 33.9272H55.1545C54.3631 33.9272 53.9572 34.1903 53.9572 34.7369V38.3806C53.9572 38.9069 54.3631 39.1701 55.1545 39.1701H58.9086C59.7203 39.1701 60.1058 38.9069 60.1058 38.3806V34.7369C60.1058 34.2106 59.7 33.9272 58.9086 33.9272H57.7316V36.3158H56.23V33.9272H56.2503ZM52.2933 34.7976C52.2933 33.7045 53.247 33.1782 55.1342 33.1782H56.23V32.4292H57.7316V33.1782H58.9086C60.816 33.1782 61.7698 33.7247 61.7698 34.7976V38.3806C61.7698 39.4737 60.816 40.0001 58.9086 40.0001H55.1545C53.247 40.0001 52.2933 39.4535 52.2933 38.3806V34.7976Z" fill="white"/>
<path d="M62.3988 39.8785L62.3176 34.3927C62.3176 33.34 63.2308 32.8137 65.0774 32.8137H67.1675C69.0141 32.8137 69.9475 33.34 69.9475 34.3927L69.8664 39.8785H68.2024L68.2836 34.3927C68.2836 33.8866 67.9183 33.6437 67.1675 33.6437H65.0977C64.3469 33.6437 63.9816 33.8866 63.9816 34.3927L64.0628 39.8785H62.3988Z" fill="white"/>
<path d="M6.3109 23.2186H0V29.4939H6.3109V23.2186Z" fill="white"/>
<path d="M13.3726 12.3887H7.06168V29.4939H13.3726V12.3887Z" fill="white"/>
<path d="M20.4546 17.834H14.1437V29.4939H20.4546V17.834Z" fill="white"/>
<path d="M27.5164 0H21.2055V29.4939H27.5164V0Z" fill="white"/>
<path d="M34.5781 2.83398H28.2672V29.4737H34.5781V2.83398Z" fill="white"/>
<path d="M41.6601 4.61536H35.3492V29.4939H41.6601V4.61536Z" fill="white"/>
<path d="M48.7218 7.97571H42.4109V29.4939H48.7218V7.97571Z" fill="white"/>
<path d="M55.8038 15.3643H49.4929V29.4736H55.8038V15.3643Z" fill="white"/>
<path d="M62.8655 4.04858H56.5546V29.4939H62.8655V4.04858Z" fill="white"/>
<path d="M69.9273 8.40088H63.6164V29.494H69.9273V8.40088Z" fill="white"/>
<path d="M69.9273 28.8462H0V29.8179H69.9273V28.8462Z" fill="white"/>
</svg>
