<svg width="114" height="65" viewBox="0 0 114 65" fill="none" xmlns="http://www.w3.org/2000/svg">
<path d="M10.4531 55.6579C10.4531 56.6118 10.651 57.1381 11.0467 57.2697C12.2667 57.5329 12.8603 58.2895 12.8603 59.5395V62.3684C12.8603 64.1447 11.3105 65 8.21082 65H4.68249C1.58284 65 0.03302 64.1118 0.03302 62.3684V53.3224H2.73697V62.3684C2.73697 63.2237 3.39647 63.6513 4.68249 63.6513H8.17784C9.49684 63.6513 10.1234 63.2237 10.1234 62.3684V59.5395C10.1563 58.8487 9.72767 58.3881 8.83734 58.125C8.17784 57.9934 7.78214 57.171 7.71619 55.6908H10.4531V55.6579Z" fill="#FF0000"/>
<path d="M16.4545 58.6184V62.3684C16.4545 63.2237 17.114 63.6513 18.4 63.6513H21.8954C23.2144 63.6513 23.8409 63.2237 23.8409 62.3684L23.9068 57.796C23.9068 56.9408 23.2473 56.4803 21.9613 56.4803H20.6753C18.2351 56.4803 17.048 55.4605 17.048 53.3882H19.752C19.752 54.5724 20.0488 55.1645 20.6753 55.1645H21.9943C25.0939 55.1645 26.6438 56.0526 26.6438 57.796L26.5778 62.3684C26.5778 64.1447 25.028 65 21.9283 65H18.4C15.3004 65 13.7505 64.1118 13.7505 62.3684V58.6184H16.4545Z" fill="#FF0000"/>
<path d="M28.1607 56.7763C28.1607 55 29.6445 54.1447 32.6453 54.1447H33.8983C35.1184 54.1447 36.3714 54.4408 37.5915 55.0329V53.3224H40.2955V62.3684C40.2955 64.1447 38.7456 65 35.646 65H32.1506C29.051 65 27.5012 64.1118 27.5012 62.3684L27.6331 60.0329H30.337L30.2051 62.3684C30.2051 63.2237 30.8646 63.6513 32.1506 63.6513H35.646C36.965 63.6513 37.5915 63.2237 37.5915 62.3684V57.4342C37.5256 56.4474 36.3055 55.7895 33.8983 55.4605H32.6782C31.4582 55.4605 30.8646 55.8881 30.8646 56.7763L30.9965 58.0921H28.2926L28.1607 56.7763Z" fill="#FF0000"/>
<path d="M51.5399 55.6579C51.5399 56.6118 51.7377 57.1381 52.1334 57.2697C53.3535 57.5329 53.9471 58.2895 53.9471 59.5395V62.3684C53.9471 64.1447 52.3972 65 49.2976 65H45.8022C42.7026 65 41.1528 64.1118 41.1528 62.3684V53.3224H43.8567V62.3684C43.8567 63.2237 44.5162 63.6513 45.8022 63.6513H49.2976C50.6166 63.6513 51.2431 63.2237 51.2431 62.3684V59.5395C51.2761 58.8487 50.8474 58.3881 49.9571 58.125C49.2976 57.9934 48.9019 57.171 48.8359 55.6908H51.5399V55.6579Z" fill="#929497"/>
<path d="M61.4324 55.1316H59.6518C58.3328 55.1316 57.7063 55.5592 57.7063 56.4474V62.3684C57.7063 63.2237 58.3658 63.6513 59.6518 63.6513H65.7522C67.0382 63.6513 67.6977 63.2237 67.6977 62.3684V56.4474C67.6977 55.5921 67.0382 55.1316 65.7522 55.1316H63.8396V59.0132H61.3995V55.1316H61.4324ZM55.0023 56.5461C55.0023 54.7698 56.5521 53.9145 59.6188 53.9145H61.3995V52.6974H63.8396V53.9145H65.7522C68.8518 53.9145 70.4016 54.8026 70.4016 56.5461V62.3684C70.4016 64.1448 68.8518 65 65.7522 65H59.6518C56.5521 65 55.0023 64.1119 55.0023 62.3684V56.5461Z" fill="#929497"/>
<path d="M73.831 58.6184V62.3684C73.831 63.2237 74.4905 63.6513 75.7765 63.6513H79.2719C80.5909 63.6513 81.2174 63.2237 81.2174 62.3684L81.2834 57.796C81.2834 56.9408 80.6239 56.4803 79.3378 56.4803H78.0518C75.6117 56.4803 74.4246 55.4605 74.4246 53.3882H77.1285C77.1285 54.5724 77.4253 55.1645 78.0518 55.1645H79.3708C82.4705 55.1645 84.0203 56.0526 84.0203 57.796L83.9543 62.3684C83.9543 64.1447 82.4045 65 79.3049 65H75.8095C72.7099 65 71.16 64.1118 71.16 62.3684V58.6184H73.831Z" fill="#929497"/>
<path d="M91.4067 55.1316H89.6261C88.3401 55.1316 87.6806 55.5592 87.6806 56.4474V62.3684C87.6806 63.2237 88.3401 63.6513 89.6261 63.6513H95.7265C97.0455 63.6513 97.672 63.2237 97.672 62.3684V56.4474C97.672 55.5921 97.0125 55.1316 95.7265 55.1316H93.8139V59.0132H91.3738V55.1316H91.4067ZM84.9766 56.5461C84.9766 54.7698 86.5264 53.9145 89.5931 53.9145H91.3738V52.6974H93.8139V53.9145H95.7265C98.8261 53.9145 100.376 54.8026 100.376 56.5461V62.3684C100.376 64.1448 98.8261 65 95.7265 65H89.6261C86.5264 65 84.9766 64.1119 84.9766 62.3684V56.5461Z" fill="#929497"/>
<path d="M101.398 64.8026L101.266 55.8881C101.266 54.1776 102.75 53.3224 105.751 53.3224H109.147C112.148 53.3224 113.665 54.1776 113.665 55.8881L113.533 64.8026H110.829L110.961 55.8881C110.961 55.0658 110.367 54.671 109.147 54.671H105.784C104.564 54.671 103.97 55.0658 103.97 55.8881L104.102 64.8026H101.398Z" fill="#929497"/>
<path d="M10.2552 37.7303H0V47.9277H10.2552V37.7303Z" fill="#929497"/>
<path d="M21.7304 20.1316H11.4752V47.9276H21.7304V20.1316Z" fill="#929497"/>
<path d="M33.2387 28.9803H22.9835V47.9276H33.2387V28.9803Z" fill="#929497"/>
<path d="M44.7141 0H34.4589V47.9276H44.7141V0Z" fill="#929497"/>
<path d="M56.1894 4.60526H45.9341V47.8947H56.1894V4.60526Z" fill="#929497"/>
<path d="M67.6977 7.50003H57.4424V47.9277H67.6977V7.50003Z" fill="#FF0000"/>
<path d="M79.173 12.9606H68.9178V47.9277H79.173V12.9606Z" fill="#FF0000"/>
<path d="M90.6813 24.9671H80.426V47.8947H90.6813V24.9671Z" fill="#FF0000"/>
<path d="M102.157 6.57895H91.9013V47.9276H102.157V6.57895Z" fill="#FF0000"/>
<path d="M113.632 13.6513H103.377V47.9277H113.632V13.6513Z" fill="#FF0000"/>
<path d="M113.632 46.875H0V48.4539H113.632V46.875Z" fill="#808184"/>
</svg>
