<svg width="63" height="65" viewBox="0 0 63 65" fill="none" xmlns="http://www.w3.org/2000/svg">
<path fill-rule="evenodd" clip-rule="evenodd" d="M19.2551 8.14952C19.2551 3.64866 22.9037 0 27.4047 0H34.7417C39.2427 0 42.8916 3.64869 42.8916 8.14955C42.8916 9.87418 44.7585 10.9522 46.2521 10.0898C50.15 7.83935 55.1343 9.17481 57.3848 13.0727L61.0535 19.4269C63.3039 23.3248 61.9685 28.309 58.0705 30.5595C56.5767 31.4219 56.5767 33.5778 58.0705 34.4403C61.9685 36.6907 63.3039 41.6748 61.0535 45.5727L57.3848 51.9267C55.1343 55.8247 50.1503 57.1604 46.2524 54.9099C44.7585 54.0475 42.8916 55.1253 42.8916 56.8502C42.8916 61.3511 39.2427 65 34.7417 65H27.4047C22.9037 65 19.2551 61.3511 19.2551 56.8502C19.2551 55.1253 17.3879 54.0475 15.8943 54.9099C11.9964 57.1604 7.01225 55.8247 4.7618 51.927L1.0932 45.5727C-1.15725 41.6748 0.178265 36.6907 4.07617 34.4403C5.56984 33.5778 5.56984 31.4219 4.07617 30.5595C0.178265 28.309 -1.15725 23.3248 1.0932 19.4269L4.7618 13.0727C7.01225 9.17478 11.9965 7.83932 15.8943 10.0898C17.388 10.9521 19.2551 9.87415 19.2551 8.14952ZM27.4047 5.90909C26.1674 5.90909 25.1643 6.91216 25.1643 8.14952C25.1643 14.4231 18.3728 18.3439 12.9398 15.2072C11.8682 14.5885 10.4979 14.9556 9.87922 16.0272L6.21062 22.3814C5.59194 23.453 5.9591 24.8233 7.03071 25.442C12.4638 28.5787 12.4638 36.4207 7.03071 39.5575C5.9591 40.1762 5.59191 41.5465 6.21062 42.6181L9.87922 48.9725C10.4979 50.0441 11.8682 50.411 12.9398 49.7924C18.3729 46.6555 25.1643 50.5768 25.1643 56.8502C25.1643 58.0878 26.1674 59.0909 27.4047 59.0909H34.7417C35.9791 59.0909 36.9825 58.0878 36.9825 56.8502C36.9825 50.5768 43.7735 46.6555 49.2069 49.7924C50.2785 50.411 51.6488 50.0438 52.2675 48.9722L55.9359 42.6181C56.5546 41.5465 56.1876 40.1762 55.116 39.5575C49.6829 36.4207 49.6829 28.5787 55.116 25.442C56.1876 24.8233 56.5546 23.453 55.9359 22.3814L52.2675 16.0273C51.6488 14.9557 50.2785 14.5885 49.2066 15.2072C43.7738 18.3439 36.9825 14.4232 36.9825 8.14955C36.9825 6.91219 35.9791 5.90909 34.7417 5.90909H27.4047ZM31.0734 23.6364C26.178 23.6364 22.2096 27.6046 22.2096 32.5C22.2096 37.3954 26.178 41.3636 31.0734 41.3636C35.9685 41.3636 39.937 37.3954 39.937 32.5C39.937 27.6046 35.9685 23.6364 31.0734 23.6364ZM16.3005 32.5C16.3005 24.3413 22.9145 17.7273 31.0734 17.7273C39.2321 17.7273 45.8461 24.3413 45.8461 32.5C45.8461 40.6587 39.2321 47.2727 31.0734 47.2727C22.9145 47.2727 16.3005 40.6587 16.3005 32.5Z" fill="white"/>
</svg>
